<svg width="128" height="128" viewBox="0 0 128 128" fill="none" xmlns="http://www.w3.org/2000/svg">
<path d="M64.6856 117.333C94.1408 117.333 118.019 93.4553 118.019 64.0001C118.019 34.5449 94.1408 10.6667 64.6856 10.6667C35.2304 10.6667 11.3523 34.5449 11.3523 64.0001C11.3523 93.4553 35.2304 117.333 64.6856 117.333Z" fill="#093C47"/>
<path d="M64.6857 21.3333C70.5767 21.3333 75.3524 16.5577 75.3524 10.6667C75.3524 4.77563 70.5767 0 64.6857 0C58.7947 0 54.019 4.77563 54.019 10.6667C54.019 16.5577 58.7947 21.3333 64.6857 21.3333Z" fill="#F4B400"/>
<path d="M111.086 48.0001C116.977 48.0001 121.752 43.2245 121.752 37.3334C121.752 31.4424 116.977 26.6667 111.086 26.6667C105.195 26.6667 100.419 31.4424 100.419 37.3334C100.419 43.2245 105.195 48.0001 111.086 48.0001Z" fill="#4285F4"/>
<path d="M111.086 101.333C116.977 101.333 121.752 96.5577 121.752 90.6667C121.752 84.7756 116.977 80 111.086 80C105.195 80 100.419 84.7756 100.419 90.6667C100.419 96.5577 105.195 101.333 111.086 101.333Z" fill="#0F9D58"/>
<path d="M64.6857 128C70.5767 128 75.3524 123.224 75.3524 117.333C75.3524 111.442 70.5767 106.667 64.6857 106.667C58.7947 106.667 54.019 111.442 54.019 117.333C54.019 123.224 58.7947 128 64.6857 128Z" fill="#DB4437"/>
<path d="M18.2857 101.333C24.1767 101.333 28.9524 96.5577 28.9524 90.6667C28.9524 84.7756 24.1767 80 18.2857 80C12.3946 80 7.61902 84.7756 7.61902 90.6667C7.61902 96.5577 12.3946 101.333 18.2857 101.333Z" fill="#4285F4"/>
<path d="M18.2857 48.0001C24.1767 48.0001 28.9524 43.2245 28.9524 37.3334C28.9524 31.4424 24.1767 26.6667 18.2857 26.6667C12.3946 26.6667 7.61902 31.4424 7.61902 37.3334C7.61902 43.2245 12.3946 48.0001 18.2857 48.0001Z" fill="#DB4437"/>
<path d="M75.3584 52.5296C75.0402 49.8427 73.7498 47.7569 71.4872 46.272C69.2246 44.7872 66.4493 44.0448 63.1615 44.0448C60.7574 44.0448 58.6539 44.4336 56.8508 45.2114C55.0655 45.9892 53.669 47.0586 52.6615 48.4198C51.6716 49.7809 51.1766 51.3276 51.1766 53.0599C51.1766 54.5094 51.5213 55.7556 52.2107 56.7985C52.9178 57.8238 53.8193 58.6811 54.9152 59.3705C56.0112 60.0422 57.1602 60.599 58.3622 61.041C59.5642 61.4652 60.669 61.8099 61.6766 62.0751L67.1918 63.5599C68.6059 63.9311 70.1791 64.4437 71.9115 65.0978C73.6615 65.7518 75.3319 66.6445 76.9228 67.7758C78.5314 68.8895 79.8572 70.3213 80.9001 72.0713C81.943 73.8213 82.4645 75.969 82.4645 78.5145C82.4645 81.4488 81.6955 84.1003 80.1577 86.469C78.6375 88.8377 76.4102 90.7203 73.4758 92.1167C70.5592 93.5132 67.015 94.2114 62.8433 94.2114C58.9544 94.2114 55.587 93.5839 52.741 92.3288C49.9127 91.0738 47.6854 89.3238 46.0592 87.0788C44.4506 84.8339 43.5402 82.2266 43.3281 79.2569H50.116C50.2928 81.3074 50.9822 83.0044 52.1842 84.3478C53.4039 85.6735 54.9418 86.6634 56.7978 87.3175C58.6716 87.9538 60.6867 88.272 62.8433 88.272C65.3534 88.272 67.6072 87.8655 69.6046 87.0523C71.6021 86.2215 73.1842 85.0725 74.3508 83.6054C75.5175 82.1205 76.1008 80.3882 76.1008 78.4084C76.1008 76.6054 75.5971 75.1382 74.5895 74.0069C73.5819 72.8756 72.2562 71.9564 70.6122 71.2493C68.9683 70.5422 67.1918 69.9235 65.2827 69.3932L58.6009 67.4842C54.3584 66.2645 50.9998 64.5233 48.5251 62.2607C46.0503 59.998 44.813 57.0372 44.813 53.3781C44.813 50.3377 45.6349 47.6862 47.2789 45.4235C48.9405 43.1432 51.1678 41.3756 53.9607 40.1205C56.7713 38.8478 59.9089 38.2114 63.3736 38.2114C66.8736 38.2114 69.9847 38.839 72.7069 40.094C75.4291 41.3314 77.5857 43.0283 79.1766 45.1849C80.7852 47.3415 81.6337 49.7897 81.7221 52.5296H75.3584Z" fill="white"/>
</svg>
